<?xml version="1.0" standalone="no"?>
<!DOCTYPE svg PUBLIC "-//W3C//DTD SVG 20010904//EN"
 "http://www.w3.org/TR/2001/REC-SVG-20010904/DTD/svg10.dtd">
<svg version="1.0" xmlns="http://www.w3.org/2000/svg"
 width="513.000000pt" height="513.000000pt" viewBox="0 0 513.000000 513.000000"
 preserveAspectRatio="xMidYMid meet">
<metadata>
Created by potrace 1.14, written by Peter Selinger 2001-2017
</metadata>
<g transform="translate(0.000000,513.000000) scale(0.100000,-0.100000)"
fill="#000000" stroke="none">
<path d="M2497 5099 c-46 -7 -136 -47 -167 -74 -8 -8 -18 -13 -22 -12 -4 1
-16 -5 -26 -13 -10 -8 -51 -33 -92 -54 -41 -21 -82 -44 -90 -51 -24 -19 -161
-95 -171 -95 -5 0 -9 -4 -9 -9 0 -8 -37 -24 -52 -22 -5 1 -8 -3 -8 -8 0 -5 -9
-13 -20 -16 -11 -3 -26 -12 -33 -18 -7 -7 -30 -21 -52 -32 -22 -11 -42 -22
-45 -25 -9 -10 -145 -84 -149 -81 -2 1 -7 -1 -10 -7 -8 -11 -155 -97 -157 -91
-1 2 -10 -3 -20 -12 -24 -20 -118 -74 -123 -70 -2 1 -7 -1 -10 -6 -3 -5 -26
-20 -51 -34 -25 -13 -47 -27 -50 -30 -3 -3 -20 -12 -37 -20 -18 -8 -33 -17
-33 -21 0 -5 -6 -8 -14 -8 -8 0 -21 -6 -28 -12 -15 -14 -39 -29 -113 -68 -27
-15 -84 -47 -125 -72 -41 -24 -96 -57 -122 -71 -27 -15 -69 -39 -95 -54 -26
-14 -54 -32 -61 -40 -8 -7 -18 -11 -23 -8 -5 4 -9 1 -9 -6 0 -7 -3 -9 -6 -6
-19 18 -132 -130 -152 -198 -3 -11 -7 -543 -8 -1182 -2 -914 0 -1168 10 -1195
7 -18 19 -48 25 -65 7 -18 17 -33 22 -33 5 0 9 -6 9 -13 0 -17 52 -67 69 -67
7 0 10 -4 7 -8 -3 -4 24 -23 60 -41 35 -18 64 -37 64 -43 0 -6 3 -8 6 -5 6 6
63 -21 74 -34 3 -4 27 -19 54 -33 27 -14 54 -30 60 -34 6 -5 36 -22 66 -38 30
-16 57 -31 60 -34 9 -10 243 -140 251 -140 5 0 9 -4 9 -9 0 -5 27 -22 60 -38
33 -15 60 -31 60 -35 0 -5 6 -8 14 -8 7 0 25 -9 40 -21 14 -11 26 -17 26 -12
0 4 4 3 8 -3 4 -6 26 -21 49 -33 23 -11 44 -25 48 -31 3 -5 15 -10 26 -10 10
0 19 -3 19 -8 0 -4 29 -23 65 -41 36 -19 65 -38 65 -43 0 -5 4 -6 10 -3 5 3
10 3 10 -2 0 -4 10 -13 23 -19 42 -21 112 -59 117 -64 3 -3 19 -12 35 -20 17
-8 32 -17 35 -20 10 -10 65 -41 83 -47 9 -3 17 -10 17 -15 0 -5 4 -7 9 -4 5 3
14 -1 21 -9 7 -8 16 -15 21 -15 5 0 38 -18 74 -40 36 -22 70 -40 75 -40 6 0
10 -4 10 -8 0 -5 16 -14 35 -22 19 -8 35 -18 35 -22 0 -5 5 -6 10 -3 6 3 10 2
10 -3 0 -5 18 -17 40 -27 22 -10 40 -23 40 -28 0 -6 3 -7 7 -4 3 4 13 1 22 -6
21 -18 97 -45 141 -50 48 -6 154 9 158 23 2 5 8 7 14 4 6 -4 13 -3 17 2 8 12
79 52 114 65 15 6 27 15 27 19 0 4 12 13 28 19 15 6 45 22 67 36 22 14 48 28
58 32 9 3 17 10 17 15 0 5 4 7 9 4 5 -3 14 1 21 9 7 8 19 15 26 15 8 0 14 5
14 10 0 6 4 10 9 10 5 0 35 15 68 34 32 18 96 55 143 82 47 27 87 52 88 56 2
4 8 8 13 8 16 0 189 102 189 112 0 5 4 7 9 3 5 -3 30 8 54 25 25 16 48 30 51
30 4 0 30 15 59 33 29 19 85 51 125 72 39 21 72 43 72 47 0 5 5 6 10 3 6 -3
10 -2 10 4 0 5 10 13 21 16 19 6 67 33 174 98 17 10 42 23 58 30 15 6 27 15
27 19 0 4 4 8 9 8 4 0 59 29 120 65 62 36 116 65 122 65 5 0 9 4 9 8 0 4 26
21 57 37 78 39 149 102 172 152 28 59 32 70 37 93 9 43 11 141 2 146 -5 3 -5
11 -1 17 10 17 11 198 1 219 -4 9 -5 19 0 22 9 5 9 367 0 382 -4 6 -4 14 0 18
10 10 10 198 0 218 -4 9 -5 19 0 22 9 5 9 367 0 382 -4 6 -4 14 0 18 10 10 10
198 0 218 -4 9 -5 19 0 22 9 5 9 367 0 382 -4 6 -4 14 0 18 9 10 10 206 0 212
-4 3 -5 11 -2 19 10 25 -46 172 -59 158 -4 -3 -7 -2 -7 4 0 15 -67 83 -74 76
-3 -4 -6 -2 -6 4 0 6 -8 13 -17 17 -10 3 -31 14 -48 23 -16 10 -57 34 -90 52
-33 19 -63 39 -67 45 -4 6 -8 7 -8 3 0 -5 -12 1 -26 12 -15 12 -32 21 -38 21
-6 1 -33 16 -61 35 -27 18 -53 31 -57 29 -4 -3 -8 -1 -8 4 0 4 -19 18 -42 31
-24 12 -56 30 -73 40 -16 10 -48 28 -70 41 -100 56 -130 75 -133 82 -2 4 -8 8
-13 8 -16 0 -313 173 -322 187 -5 8 -13 10 -19 7 -6 -4 -13 -3 -17 2 -8 12
-36 29 -88 55 -24 12 -43 26 -43 32 0 6 -3 8 -6 4 -4 -3 -31 9 -60 28 -30 19
-57 35 -59 35 -3 0 -38 20 -78 44 -39 24 -88 51 -107 61 -18 10 -40 24 -48 31
-7 8 -18 12 -23 9 -5 -4 -9 -1 -9 4 0 6 -7 11 -15 11 -8 0 -15 3 -15 8 0 4
-27 20 -60 37 -33 16 -60 33 -60 38 0 4 -4 5 -10 2 -5 -3 -10 -2 -10 3 0 4
-16 14 -35 22 -19 8 -35 17 -35 20 0 3 -16 12 -35 20 -19 8 -35 17 -35 22 0 4
-8 8 -18 8 -10 0 -23 5 -30 12 -7 7 -12 9 -12 5 0 -4 -9 -3 -20 3 -15 8 -20 8
-20 -2 0 -8 -3 -9 -8 -3 -9 13 -43 14 -105 4z"/>
</g>
</svg>
